<?xml version="1.0" encoding="UTF-8"?>
<svg version="1.1" xmlns="http://www.w3.org/2000/svg" width="64" height="64">
<path d="M0 0 C21.12 0 42.24 0 64 0 C64 21.12 64 42.24 64 64 C42.88 64 21.76 64 0 64 C0 42.88 0 21.76 0 0 Z " fill="#11C1DF" transform="translate(0,0)"/>
<path d="M0 0 C1.65 0 3.3 0 5 0 C5.33 4.95 5.66 9.9 6 15 C7.32 14.01 8.64 13.02 10 12 C14.99039002 11.45559382 18.00560122 11.91860666 22 15 C24.29755922 18.44633882 24.23643976 19.71068391 24.1953125 23.76171875 C24.18886719 24.87998047 24.18242188 25.99824219 24.17578125 27.15039062 C24.15902344 28.31763672 24.14226563 29.48488281 24.125 30.6875 C24.11597656 31.86634766 24.10695313 33.04519531 24.09765625 34.25976562 C24.07406423 37.17338026 24.0411454 40.08658892 24 43 C22.35 43 20.7 43 19 43 C18.98018066 42.31897217 18.96036133 41.63794434 18.93994141 40.9362793 C18.84473017 37.85296083 18.73503534 34.77032351 18.625 31.6875 C18.5940625 30.61564453 18.563125 29.54378906 18.53125 28.43945312 C18.49257813 27.41142578 18.45390625 26.38339844 18.4140625 25.32421875 C18.3826416 24.37635498 18.3512207 23.42849121 18.31884766 22.4519043 C18.1510949 19.7469731 18.1510949 19.7469731 16 17 C12.54230809 16.41657647 12.54230809 16.41657647 9 17 C6.18447212 19.85740505 5.6085694 22.03892361 5.48828125 25.984375 C5.45283203 26.91894531 5.41738281 27.85351562 5.38085938 28.81640625 C5.35830078 29.78449219 5.33574219 30.75257812 5.3125 31.75 C5.27833984 32.73355469 5.24417969 33.71710937 5.20898438 34.73046875 C5.12664727 37.15353199 5.05745162 39.57623998 5 42 C3.35 42 1.7 42 0 42 C0 28.14 0 14.28 0 0 Z " fill="#F7FCFD" transform="translate(13,9)"/>
<path d="M0 0 C1.65 0 3.3 0 5 0 C5 13.86 5 27.72 5 42 C3.35 42 1.7 42 0 42 C0 28.14 0 14.28 0 0 Z " fill="#FEFEFE" transform="translate(46,9)"/>
</svg>
